<?xml version="1.0" encoding="utf-8"?>
<!-- Generator: Adobe Illustrator 15.0.2, SVG Export Plug-In . SVG Version: 6.00 Build 0)  -->
<!DOCTYPE svg PUBLIC "-//W3C//DTD SVG 1.1//EN" "http://www.w3.org/Graphics/SVG/1.1/DTD/svg11.dtd">
<svg version="1.1" id="Calque_1" xmlns="http://www.w3.org/2000/svg" xmlns:xlink="http://www.w3.org/1999/xlink" x="0px" y="0px"
	 width="36px" height="576px" viewBox="0 0 36 576" enable-background="new 0 0 36 576" xml:space="preserve">
<g>
	<g>
		<g>
			<g>
				<polygon fill="#FFFFFF" points="7.103,3.112 19.101,3.112 29.073,13.085 29.073,33.03 6.925,33.03 				"/>
				<path fill="#9E9E9E" d="M19.591,2H6.177v32h23.65v-21.77L19.591,2z M20.538,6.099V5.352l5.936,5.927h-5.936V6.099z
					 M28.127,32.301H7.876V3.699h10.963v9.281h9.288V32.301L28.127,32.301z"/>
			</g>
		</g>
		<g>
			<rect x="10.245" y="10.752" fill="#607D8B" width="6.206" height="2.908"/>
			<rect x="10.245" y="16.957" fill="#607D8B" width="15.512" height="2.906"/>
			<rect x="10.245" y="23.16" fill="#607D8B" width="15.512" height="2.906"/>
		</g>
	</g>
	<g>
		<g>
			<g>
				<polygon fill="#FFFFFF" points="7.103,39.112 19.101,39.112 29.073,49.085 29.073,69.03 6.925,69.03 				"/>
				<path fill="#9E9E9E" d="M19.591,38H6.177v32h23.65v-21.77L19.591,38z M20.538,42.099v-0.747l5.936,5.927h-5.936V42.099z
					 M28.127,68.301H7.876V39.699h10.963v9.281h9.288V68.301L28.127,68.301z"/>
			</g>
		</g>
		<g>
			<rect x="10.245" y="46.752" fill="#607D8B" width="6.206" height="2.908"/>
			<rect x="10.245" y="52.957" fill="#607D8B" width="15.512" height="2.906"/>
			<rect x="10.245" y="59.16" fill="#607D8B" width="15.512" height="2.906"/>
		</g>
	</g>
	<g>
		<g>
			<g>
				<polygon fill="#FFFFFF" points="7.103,75.112 19.101,75.112 29.073,85.085 29.073,105.03 6.925,105.03 				"/>
				<path fill="#9E9E9E" d="M19.591,74H6.177v32h23.65v-21.77L19.591,74z M20.538,78.099v-0.747l5.936,5.927h-5.936V78.099z
					 M28.127,104.301H7.876V75.699h10.963v9.281h9.288V104.301L28.127,104.301z"/>
			</g>
		</g>
		<g>
			<rect x="10.245" y="82.752" fill="#607D8B" width="6.206" height="2.908"/>
			<rect x="10.245" y="88.957" fill="#607D8B" width="15.512" height="2.906"/>
			<rect x="10.245" y="95.16" fill="#607D8B" width="15.512" height="2.906"/>
		</g>
	</g>
	<g>
		<g>
			<g>
				<polygon fill="#FFFFFF" points="7.103,111.112 19.101,111.112 29.073,121.085 29.073,141.03 6.925,141.03 				"/>
				<path fill="#9E9E9E" d="M19.591,110H6.177v32h23.65v-21.77L19.591,110z M20.538,114.099v-0.747l5.936,5.927h-5.936V114.099z
					 M28.127,140.301H7.876v-28.602h10.963v9.281h9.288V140.301L28.127,140.301z"/>
			</g>
		</g>
		<g>
			<rect x="10.245" y="118.752" fill="#607D8B" width="6.206" height="2.908"/>
			<rect x="10.245" y="124.957" fill="#607D8B" width="15.512" height="2.906"/>
			<rect x="10.245" y="131.16" fill="#607D8B" width="15.512" height="2.906"/>
		</g>
	</g>
	<g>
		<g>
			<g>
				<polygon fill="#FFFFFF" points="7.103,147.112 19.101,147.112 29.073,157.084 29.073,177.03 6.925,177.03 				"/>
				<path fill="#9E9E9E" d="M19.591,146H6.177v32h23.65V156.23L19.591,146z M20.538,150.1v-0.748l5.936,5.928h-5.936V150.1z
					 M28.127,176.301H7.876v-28.602h10.963v9.28h9.288V176.301L28.127,176.301z"/>
			</g>
		</g>
		<g>
			<rect x="10.245" y="154.752" fill="#607D8B" width="6.206" height="2.908"/>
			<rect x="10.245" y="160.957" fill="#607D8B" width="15.512" height="2.905"/>
			<rect x="10.245" y="167.16" fill="#607D8B" width="15.512" height="2.905"/>
		</g>
	</g>
	<g>
		<g>
			<g>
				<polygon fill="#FFFFFF" points="7.103,183.112 19.101,183.112 29.073,193.084 29.073,213.03 6.925,213.03 				"/>
				<path fill="#9E9E9E" d="M19.591,182H6.177v32h23.65V192.23L19.591,182z M20.538,186.1v-0.748l5.936,5.928h-5.936V186.1z
					 M28.127,212.301H7.876v-28.602h10.963v9.28h9.288V212.301L28.127,212.301z"/>
			</g>
		</g>
		<g>
			<rect x="10.245" y="190.752" fill="#607D8B" width="6.206" height="2.908"/>
			<rect x="10.245" y="196.957" fill="#607D8B" width="15.512" height="2.905"/>
			<rect x="10.245" y="203.16" fill="#607D8B" width="15.512" height="2.905"/>
		</g>
	</g>
	<g>
		<g>
			<g>
				<polygon fill="#FFFFFF" points="7.103,219.112 19.101,219.112 29.073,229.084 29.073,249.03 6.925,249.03 				"/>
				<path fill="#9E9E9E" d="M19.591,218H6.177v32h23.65V228.23L19.591,218z M20.538,222.1v-0.748l5.936,5.928h-5.936V222.1z
					 M28.127,248.301H7.876v-28.602h10.963v9.28h9.288V248.301L28.127,248.301z"/>
			</g>
		</g>
		<g>
			<rect x="10.245" y="226.752" fill="#607D8B" width="6.206" height="2.908"/>
			<rect x="10.245" y="232.957" fill="#607D8B" width="15.512" height="2.905"/>
			<rect x="10.245" y="239.16" fill="#607D8B" width="15.512" height="2.905"/>
		</g>
	</g>
	<g>
		<g>
			<g>
				<polygon fill="#FFFFFF" points="7.103,255.112 19.101,255.112 29.073,265.084 29.073,285.03 6.925,285.03 				"/>
				<path fill="#9E9E9E" d="M19.591,254H6.177v32h23.65V264.23L19.591,254z M20.538,258.1v-0.748l5.936,5.928h-5.936V258.1z
					 M28.127,284.301H7.876v-28.602h10.963v9.28h9.288V284.301L28.127,284.301z"/>
			</g>
		</g>
		<g>
			<rect x="10.245" y="262.752" fill="#607D8B" width="6.206" height="2.908"/>
			<rect x="10.245" y="268.957" fill="#607D8B" width="15.512" height="2.905"/>
			<rect x="10.245" y="275.16" fill="#607D8B" width="15.512" height="2.905"/>
		</g>
	</g>
	<g>
		<g>
			<g>
				<polygon fill="#FFFFFF" points="7.103,291.112 19.101,291.112 29.073,301.084 29.073,321.03 6.925,321.03 				"/>
				<path fill="#9E9E9E" d="M19.591,290H6.177v32h23.65V300.23L19.591,290z M20.538,294.1v-0.748l5.936,5.928h-5.936V294.1z
					 M28.127,320.301H7.876v-28.602h10.963v9.28h9.288V320.301L28.127,320.301z"/>
			</g>
		</g>
		<g>
			<rect x="10.245" y="298.752" fill="#607D8B" width="6.206" height="2.908"/>
			<rect x="10.245" y="304.957" fill="#607D8B" width="15.512" height="2.905"/>
			<rect x="10.245" y="311.16" fill="#607D8B" width="15.512" height="2.905"/>
		</g>
	</g>
	<g>
		<g>
			<g>
				<polygon fill="#FFFFFF" points="7.103,327.112 19.101,327.112 29.073,337.084 29.073,357.03 6.925,357.03 				"/>
				<path fill="#9E9E9E" d="M19.591,326H6.177v32h23.65V336.23L19.591,326z M20.538,330.1v-0.748l5.936,5.928h-5.936V330.1z
					 M28.127,356.301H7.876v-28.602h10.963v9.28h9.288V356.301L28.127,356.301z"/>
			</g>
		</g>
		<g>
			<rect x="10.245" y="334.752" fill="#607D8B" width="6.206" height="2.907"/>
			<rect x="10.245" y="340.956" fill="#607D8B" width="15.512" height="2.906"/>
			<rect x="10.245" y="347.159" fill="#607D8B" width="15.512" height="2.906"/>
		</g>
	</g>
	<g>
		<g>
			<g>
				<polygon fill="#FFFFFF" points="7.103,363.112 19.101,363.112 29.073,373.084 29.073,393.03 6.925,393.03 				"/>
				<path fill="#9E9E9E" d="M19.591,362H6.177v32h23.65V372.23L19.591,362z M20.538,366.1v-0.748l5.936,5.928h-5.936V366.1z
					 M28.127,392.301H7.876v-28.603h10.963v9.281h9.288V392.301L28.127,392.301z"/>
			</g>
		</g>
		<g>
			<rect x="10.245" y="370.752" fill="#607D8B" width="6.206" height="2.907"/>
			<rect x="10.245" y="376.956" fill="#607D8B" width="15.512" height="2.906"/>
			<rect x="10.245" y="383.159" fill="#607D8B" width="15.512" height="2.906"/>
		</g>
	</g>
	<g>
		<g>
			<g>
				<polygon fill="#FFFFFF" points="7.103,399.112 19.101,399.112 29.073,409.084 29.073,429.03 6.925,429.03 				"/>
				<path fill="#9E9E9E" d="M19.591,398H6.177v32h23.65V408.23L19.591,398z M20.538,402.1v-0.748l5.936,5.928h-5.936V402.1z
					 M28.127,428.301H7.876v-28.603h10.963v9.281h9.288V428.301L28.127,428.301z"/>
			</g>
		</g>
		<g>
			<rect x="10.245" y="406.752" fill="#607D8B" width="6.206" height="2.907"/>
			<rect x="10.245" y="412.956" fill="#607D8B" width="15.512" height="2.906"/>
			<rect x="10.245" y="419.159" fill="#607D8B" width="15.512" height="2.906"/>
		</g>
	</g>
	<g>
		<g>
			<g>
				<polygon fill="#FFFFFF" points="7.103,435.112 19.101,435.112 29.073,445.084 29.073,465.03 6.925,465.03 				"/>
				<path fill="#9E9E9E" d="M19.591,434H6.177v32h23.65V444.23L19.591,434z M20.538,438.1v-0.748l5.936,5.928h-5.936V438.1z
					 M28.127,464.301H7.876v-28.603h10.963v9.281h9.288V464.301L28.127,464.301z"/>
			</g>
		</g>
		<g>
			<rect x="10.245" y="442.752" fill="#607D8B" width="6.206" height="2.907"/>
			<rect x="10.245" y="448.956" fill="#607D8B" width="15.512" height="2.906"/>
			<rect x="10.245" y="455.159" fill="#607D8B" width="15.512" height="2.906"/>
		</g>
	</g>
	<g>
		<g>
			<g>
				<polygon fill="#FFFFFF" points="7.103,471.112 19.101,471.112 29.073,481.084 29.073,501.03 6.925,501.03 				"/>
				<path fill="#9E9E9E" d="M19.591,470H6.177v32h23.65V480.23L19.591,470z M20.538,474.1v-0.748l5.936,5.928h-5.936V474.1z
					 M28.127,500.301H7.876v-28.603h10.963v9.281h9.288V500.301L28.127,500.301z"/>
			</g>
		</g>
		<g>
			<rect x="10.245" y="478.752" fill="#607D8B" width="6.206" height="2.907"/>
			<rect x="10.245" y="484.956" fill="#607D8B" width="15.512" height="2.906"/>
			<rect x="10.245" y="491.159" fill="#607D8B" width="15.512" height="2.906"/>
		</g>
	</g>
	<g>
		<g>
			<g>
				<polygon fill="#FFFFFF" points="7.103,507.111 19.101,507.111 29.073,517.082 29.073,537.029 6.925,537.029 				"/>
				<path fill="#9E9E9E" d="M19.591,505.998H6.177v32h23.65v-21.77L19.591,505.998z M20.538,510.099v-0.748l5.936,5.928h-5.936
					V510.099z M28.127,536.3H7.876v-28.603h10.963v9.281h9.288V536.3L28.127,536.3z"/>
			</g>
		</g>
		<g>
			<rect x="10.245" y="514.751" fill="#607D8B" width="6.206" height="2.907"/>
			<rect x="10.245" y="520.955" fill="#607D8B" width="15.512" height="2.906"/>
			<rect x="10.245" y="527.158" fill="#607D8B" width="15.512" height="2.906"/>
		</g>
	</g>
	<g>
		<g>
			<g>
				<polygon fill="#FFFFFF" points="7.103,543.111 19.101,543.111 29.073,553.082 29.073,573.029 6.925,573.029 				"/>
				<path fill="#9E9E9E" d="M19.591,541.998H6.177v32h23.65v-21.77L19.591,541.998z M20.538,546.099v-0.748l5.936,5.928h-5.936
					V546.099z M28.127,572.3H7.876v-28.603h10.963v9.281h9.288V572.3L28.127,572.3z"/>
			</g>
		</g>
		<g>
			<rect x="10.245" y="550.75" fill="#607D8B" width="6.206" height="2.908"/>
			<rect x="10.245" y="556.955" fill="#607D8B" width="15.512" height="2.906"/>
			<rect x="10.245" y="563.158" fill="#607D8B" width="15.512" height="2.906"/>
		</g>
	</g>
	<rect x="4.001" y="39.999" opacity="0.1" fill="#F44336" enable-background="new    " width="28" height="2"/>
	<rect x="4.001" y="77.999" opacity="0.2" fill="#F44336" enable-background="new    " width="28" height="2"/>
	<rect x="4.001" y="115.999" opacity="0.3" fill="#F44336" enable-background="new    " width="28" height="2.001"/>
	<rect x="4.001" y="153.999" opacity="0.4" fill="#F44336" enable-background="new    " width="28" height="2.001"/>
	<rect x="4.001" y="191.999" opacity="0.5" fill="#F44336" enable-background="new    " width="28" height="2.001"/>
	<rect x="4.001" y="229.999" opacity="0.6" fill="#F44336" enable-background="new    " width="28" height="2.001"/>
	<rect x="4.001" y="267.999" opacity="0.7" fill="#F44336" enable-background="new    " width="28" height="2.001"/>
	<rect x="4.001" y="305.999" opacity="0.8" fill="#F44336" enable-background="new    " width="28" height="2.001"/>
	<rect x="4.001" y="343.998" opacity="0.9" fill="#F44336" enable-background="new    " width="28" height="2.002"/>
	<rect x="4.001" y="381.998" fill="#F44336" width="28" height="2.002"/>
	<rect x="4.001" y="419.998" fill="#F44336" width="28" height="2.002"/>
	<rect x="4.001" y="457.998" fill="#F44336" width="28" height="2.002"/>
	<rect x="4.001" y="495.998" fill="#F44336" width="28" height="2.002"/>
	<rect x="4.001" y="533.998" fill="#F44336" width="28" height="2.002"/>
	<rect x="4.001" y="571.998" fill="#F44336" width="28" height="2.002"/>
	<rect y="0" fill="#607D8B" fill-opacity="0" width="36" height="576"/>
</g>
</svg>
