<?xml version="1.0" encoding="utf-8"?>
<!-- Generator: Adobe Illustrator 24.1.2, SVG Export Plug-In . SVG Version: 6.00 Build 0)  -->
<svg version="1.1" id="WB_x5F_NoPatch" xmlns="http://www.w3.org/2000/svg" xmlns:xlink="http://www.w3.org/1999/xlink" x="0px"
	 y="0px" viewBox="0 0 205 205" style="enable-background:new 0 0 205 205;" xml:space="preserve">
<style type="text/css">
	.st0{fill:url(#SVGID_1_);}
	.st1{fill:url(#SVGID_2_);}
	.st2{fill:url(#SVGID_3_);}
</style>
<g>
	<linearGradient id="SVGID_1_" gradientUnits="userSpaceOnUse" x1="130.7345" y1="64.0002" x2="111.8855" y2="115.7348">
		<stop  offset="0" style="stop-color:#065FD4"/>
		<stop  offset="0.1466" style="stop-color:#065ED0"/>
		<stop  offset="0.3016" style="stop-color:#0559C3"/>
		<stop  offset="0.4604" style="stop-color:#0552AE"/>
		<stop  offset="0.6209" style="stop-color:#044891"/>
		<stop  offset="0.7549" style="stop-color:#033D72"/>
	</linearGradient>
	<path class="st0" d="M123.5,57.2C117,63,113,71.3,113,80.7h0v12.2v8.7v20.9c0,0,0,0,0,0c0-4.8,1.1-9.4,3.1-13.5
		c1.3-2.7,3-5.2,4.9-7.4h0c0,0,0,0,0,0c0.8-0.9,1.6-1.7,2.5-2.5c0,0,0,0,0,0c2.2-2,4.7-3.6,7.4-4.9c1-0.5,2-0.9,3.1-1.3V80.7v0v0V51
		C130,52.4,126.5,54.5,123.5,57.2z"/>
	<linearGradient id="SVGID_2_" gradientUnits="userSpaceOnUse" x1="81.4626" y1="121.182" x2="112.3429" y2="142.8383">
		<stop  offset="0" style="stop-color:#065FD4"/>
		<stop  offset="1" style="stop-color:#033D72"/>
	</linearGradient>
	<path class="st1" d="M113,122.3c0,0.1,0,0.2,0,0.3c0,0,0,0,0,0v0v0c0,5.7-4.5,10.3-10.1,10.5c-0.1,0-0.2,0-0.3,0
		c-0.1,0-0.2,0-0.3,0c-5.6-0.2-10.1-4.8-10.1-10.5h0c0-5.8-4.7-10.5-10.5-10.5c-4.6,0-8.5,3-9.9,7.2c-0.3,1-0.5,2.2-0.5,3.3
		c0,0.3,0,0.6,0,0.9c0,0.2,0,0.3,0,0.5c0,2.1,0.3,4.2,0.9,6.1C74.6,138.7,82.6,145,92,145c11.6,0,21-9.4,21-21
		C113.1,123.4,113,122.8,113,122.3z"/>
	<linearGradient id="SVGID_3_" gradientUnits="userSpaceOnUse" x1="124.5154" y1="88.736" x2="93.6351" y2="148.0904">
		<stop  offset="0" style="stop-color:#2799FF"/>
		<stop  offset="1" style="stop-color:#065FD4"/>
	</linearGradient>
	<path class="st2" d="M133.9,121.4v-11.1v-8.7v0v0v-8.7c-1.1,0.4-2.1,0.8-3.1,1.3c-2.7,1.3-5.2,3-7.4,4.9c0,0,0,0,0,0
		c-0.9,0.8-1.7,1.6-2.5,2.5c0,0,0,0,0,0h0c-2,2.2-3.6,4.7-4.9,7.4c-1.9,4-3,8.5-3.1,13.3c0,0.6,0,1.1,0,1.7c0,11.6-9.3,21-20.9,21
		c-9.5,0-17.5-6.3-20.1-14.9c0.5,2.1,1.2,4.1,2.1,6c1.3,2.7,3,5.2,4.9,7.4c0,0,0,0,0,0c0.8,0.9,1.6,1.7,2.5,2.5
		c2.2,2,4.7,3.6,7.4,4.9c4.1,2,8.7,3.1,13.6,3.1c3.7,0,7.2-0.6,10.5-1.8c1.1-0.4,2.1-0.8,3.1-1.3c2.7-1.3,5.2-3,7.4-4.9c0,0,0,0,0,0
		c0.9-0.8,1.7-1.6,2.5-2.5c0,0,0,0,0,0c2-2.2,3.6-4.7,4.9-7.4c1.8-3.8,2.9-8,3-12.4c0-0.4,0-0.8,0-1.2
		C134,122.2,133.9,121.8,133.9,121.4z"/>
</g>
</svg>
