<?xml version="1.0" encoding="utf-8"?>
<!-- Generator: Adobe Illustrator 24.1.2, SVG Export Plug-In . SVG Version: 6.00 Build 0)  -->
<svg version="1.1" id="WB_x5F_NoPatch" xmlns="http://www.w3.org/2000/svg" xmlns:xlink="http://www.w3.org/1999/xlink" x="0px"
	 y="0px" viewBox="0 0 80 80" style="enable-background:new 0 0 80 80;" xml:space="preserve">
<style type="text/css">
	.st0{fill:url(#SVGID_1_);}
	.st1{fill:url(#SVGID_2_);}
	.st2{fill:url(#SVGID_3_);}
</style>
<g>
	
		<linearGradient id="SVGID_1_" gradientUnits="userSpaceOnUse" x1="53.1614" y1="59.9403" x2="44.3774" y2="35.831" gradientTransform="matrix(1 0 0 -1 0 82)">
		<stop  offset="0" style="stop-color:#065FD4"/>
		<stop  offset="0.1466" style="stop-color:#065ED0"/>
		<stop  offset="0.3016" style="stop-color:#0559C3"/>
		<stop  offset="0.4604" style="stop-color:#0552AE"/>
		<stop  offset="0.6209" style="stop-color:#044891"/>
		<stop  offset="0.7549" style="stop-color:#033D72"/>
	</linearGradient>
	<path class="st0" d="M49.8,18.9c-3,2.7-4.9,6.6-4.9,10.9l0,0v5.7v4.1v9.8l0,0c0-2.3,0.5-4.4,1.4-6.3c0.6-1.3,1.4-2.4,2.3-3.4l0,0
		l0,0c0.4-0.4,0.8-0.8,1.2-1.2l0,0c1-0.9,2.2-1.7,3.4-2.3c0.5-0.2,0.9-0.4,1.4-0.6v-5.7l0,0l0,0V16C52.8,16.6,51.2,17.6,49.8,18.9z"
		/>
	
		<linearGradient id="SVGID_2_" gradientUnits="userSpaceOnUse" x1="30.2364" y1="33.3511" x2="44.6272" y2="23.2589" gradientTransform="matrix(1 0 0 -1 0 82)">
		<stop  offset="0" style="stop-color:#065FD4"/>
		<stop  offset="1" style="stop-color:#033D72"/>
	</linearGradient>
	<path class="st1" d="M44.9,49.2L44.9,49.2L44.9,49.2L44.9,49.2L44.9,49.2c0,2.7-2.1,4.9-4.7,5c-0.1,0-0.1,0-0.2,0
		c-0.1,0-0.1,0-0.2,0c-2.6-0.1-4.7-2.2-4.7-4.9l0,0c0-2.7-2.2-4.9-4.9-4.9c-2.2,0-4,1.4-4.6,3.3c-0.2,0.5-0.3,1-0.3,1.5
		c0,0.1,0,0.3,0,0.4c0,0.1,0,0.2,0,0.2c0,1,0.1,2,0.4,2.9c1.2,4,5,6.9,9.4,6.9c5.4,0,9.8-4.4,9.8-9.8C44.9,49.7,44.9,49.5,44.9,49.2
		z"/>
	
		<linearGradient id="SVGID_3_" gradientUnits="userSpaceOnUse" x1="50.1545" y1="48.469" x2="35.7637" y2="20.8087" gradientTransform="matrix(1 0 0 -1 0 82)">
		<stop  offset="0" style="stop-color:#2799FF"/>
		<stop  offset="1" style="stop-color:#065FD4"/>
	</linearGradient>
	<path class="st2" d="M54.6,48.8v-5.2v-4.1l0,0l0,0v-4.1c-0.5,0.2-1,0.4-1.4,0.6c-1.3,0.6-2.4,1.4-3.4,2.3l0,0
		c-0.4,0.4-0.8,0.8-1.2,1.2l0,0l0,0c-0.9,1-1.7,2.2-2.3,3.4c-0.9,1.9-1.4,4-1.4,6.2c0,0.3,0,0.5,0,0.8c0,5.4-4.3,9.8-9.8,9.8
		c-4.4,0-8.1-2.9-9.4-6.9c0.2,1,0.6,1.9,1,2.8c0.6,1.3,1.4,2.4,2.3,3.4l0,0c0.4,0.4,0.7,0.8,1.2,1.2c1,0.9,2.2,1.7,3.4,2.3
		c1.9,0.9,4.1,1.4,6.3,1.4c1.7,0,3.4-0.3,4.9-0.8c0.5-0.2,1-0.4,1.4-0.6c1.3-0.6,2.4-1.4,3.4-2.3l0,0c0.4-0.4,0.8-0.8,1.2-1.2l0,0
		c0.9-1,1.7-2.2,2.3-3.4c0.8-1.8,1.3-3.7,1.4-5.8c0-0.2,0-0.4,0-0.5S54.7,49,54.6,48.8z"/>
</g>
</svg>
