<?xml version="1.0" encoding="utf-8"?>
<!-- Generator: Adobe Illustrator 24.1.2, SVG Export Plug-In . SVG Version: 6.00 Build 0)  -->
<svg version="1.1" id="WB_x5F_NoPatch" xmlns="http://www.w3.org/2000/svg" xmlns:xlink="http://www.w3.org/1999/xlink" x="0px"
	 y="0px" viewBox="0 0 92 56" style="enable-background:new 0 0 92 56;" xml:space="preserve">
<style type="text/css">
	.st0{fill:url(#SVGID_1_);}
	.st1{fill:url(#SVGID_2_);}
	.st2{fill:url(#SVGID_3_);}
</style>
<g>
	<linearGradient id="SVGID_1_" gradientUnits="userSpaceOnUse" x1="55.5942" y1="14.9176" x2="49.1892" y2="32.4972">
		<stop  offset="0" style="stop-color:#065FD4"/>
		<stop  offset="0.1466" style="stop-color:#065ED0"/>
		<stop  offset="0.3016" style="stop-color:#0559C3"/>
		<stop  offset="0.4604" style="stop-color:#0552AE"/>
		<stop  offset="0.6209" style="stop-color:#044891"/>
		<stop  offset="0.7549" style="stop-color:#033D72"/>
	</linearGradient>
	<path class="st0" d="M53.1,12.6c-2.2,2-3.6,4.8-3.6,8h0v4.2v3v7.1c0,0,0,0,0,0c0-1.6,0.4-3.2,1-4.6c0.4-0.9,1-1.8,1.7-2.5h0
		c0,0,0,0,0,0c0.3-0.3,0.5-0.6,0.8-0.8c0,0,0,0,0,0c0.7-0.7,1.6-1.2,2.5-1.7c0.3-0.2,0.7-0.3,1.1-0.4v-4.2v0v0V10.5
		C55.4,11,54.1,11.7,53.1,12.6z"/>
	<linearGradient id="SVGID_2_" gradientUnits="userSpaceOnUse" x1="38.8514" y1="34.3483" x2="49.3447" y2="41.7072">
		<stop  offset="0" style="stop-color:#065FD4"/>
		<stop  offset="1" style="stop-color:#033D72"/>
	</linearGradient>
	<path class="st1" d="M49.6,34.7C49.6,34.8,49.6,34.8,49.6,34.7C49.6,34.8,49.6,34.8,49.6,34.7L49.6,34.7L49.6,34.7
		c0,2-1.5,3.6-3.4,3.6c0,0-0.1,0-0.1,0c0,0-0.1,0-0.1,0c-1.9-0.1-3.4-1.6-3.4-3.6h0c0-2-1.6-3.6-3.6-3.6c-1.6,0-2.9,1-3.4,2.4
		c-0.1,0.4-0.2,0.7-0.2,1.1c0,0.1,0,0.2,0,0.3c0,0.1,0,0.1,0,0.2c0,0.7,0.1,1.4,0.3,2.1c0.9,2.9,3.6,5,6.8,5c3.9,0,7.1-3.2,7.1-7.1
		C49.6,35.1,49.6,34.9,49.6,34.7z"/>
	<linearGradient id="SVGID_3_" gradientUnits="userSpaceOnUse" x1="53.4809" y1="23.3229" x2="42.9876" y2="43.4919">
		<stop  offset="0" style="stop-color:#2799FF"/>
		<stop  offset="1" style="stop-color:#065FD4"/>
	</linearGradient>
	<path class="st2" d="M56.7,34.4v-3.8v-3v0v0v-3c-0.4,0.1-0.7,0.3-1.1,0.4c-0.9,0.4-1.8,1-2.5,1.7c0,0,0,0,0,0
		c-0.3,0.3-0.6,0.5-0.8,0.8c0,0,0,0,0,0h0c-0.7,0.8-1.2,1.6-1.7,2.5c-0.7,1.4-1,2.9-1,4.5c0,0.2,0,0.4,0,0.6c0,3.9-3.2,7.1-7.1,7.1
		c-3.2,0-5.9-2.1-6.8-5c0.2,0.7,0.4,1.4,0.7,2c0.4,0.9,1,1.8,1.7,2.5c0,0,0,0,0,0c0.3,0.3,0.5,0.6,0.8,0.8c0.7,0.7,1.6,1.2,2.5,1.7
		c1.4,0.7,3,1,4.6,1c1.2,0,2.4-0.2,3.6-0.6c0.4-0.1,0.7-0.3,1.1-0.4c0.9-0.4,1.8-1,2.5-1.7c0,0,0,0,0,0c0.3-0.3,0.6-0.5,0.8-0.8
		c0,0,0,0,0,0c0.7-0.7,1.2-1.6,1.7-2.5c0.6-1.3,1-2.7,1-4.2c0-0.1,0-0.3,0-0.4C56.7,34.7,56.7,34.5,56.7,34.4z"/>
</g>
</svg>
