<?xml version="1.0" encoding="utf-8"?>
<!-- Generator: Adobe Illustrator 24.1.3, SVG Export Plug-In . SVG Version: 6.00 Build 0)  -->
<svg version="1.1" id="WB_x5F_NoPatch" xmlns="http://www.w3.org/2000/svg" xmlns:xlink="http://www.w3.org/1999/xlink" x="0px"
	 y="0px" viewBox="0 0 80 80" style="enable-background:new 0 0 80 80;" xml:space="preserve">
<style type="text/css">
	.st0{fill:url(#SVGID_1_);}
	.st1{fill:url(#SVGID_2_);}
	.st2{fill:url(#SVGID_3_);}
	.st3{fill:url(#SVGID_4_);}
</style>
<linearGradient id="SVGID_1_" gradientUnits="userSpaceOnUse" x1="54.4902" y1="61.6175" x2="34.9058" y2="23.9745">
	<stop  offset="0" style="stop-color:#2799FF"/>
	<stop  offset="9.409376e-02" style="stop-color:#065FD4"/>
</linearGradient>
<path class="st0" d="M51,16.3c-3.4,3-5.5,7.4-5.5,12.3V35v4.6v10.8v0.1c0,3-2.4,5.4-5.3,5.5c-0.1,0-0.1,0-0.2,0c-0.1,0-0.1,0-0.2,0
	c-3-0.1-5.3-2.5-5.3-5.5S32,45,29,45c-2.4,0-4.5,1.6-5.2,3.8c-0.2,0.5-0.3,1.1-0.3,1.7c0,0.2,0,0.3,0,0.5c0,0.1,0,0.2,0,0.3
	c0,0.8,0.1,1.6,0.3,2.4l0,0l0,0c0,0,0,0,0,0l0.2,0.9c0.1,0.3,0.2,0.6,0.3,0.9l0,0.1l0,0c0.2,0.7,0.5,1.4,0.8,2
	c0.7,1.4,1.5,2.7,2.6,3.9c0.4,0.5,0.8,0.9,1.3,1.3c1.2,1,2.5,1.9,3.9,2.6c2.2,1,4.6,1.6,7.1,1.6c1.9,0,3.8-0.3,5.5-0.9
	c0.6-0.2,1.1-0.4,1.6-0.7c1.4-0.7,2.7-1.5,3.9-2.6c0.5-0.4,0.9-0.8,1.3-1.3c1-1.2,1.9-2.5,2.6-3.9c0.9-2,1.5-4.2,1.6-6.5
	c0-0.2,0-0.4,0-0.6s0-0.5,0-0.7V44v-4.6V35v-6.4V13C54.4,13.6,52.6,14.8,51,16.3z"/>
<g>
	
		<linearGradient id="SVGID_2_" gradientUnits="userSpaceOnUse" x1="54.8247" y1="62.2263" x2="44.9427" y2="35.1033" gradientTransform="matrix(1 0 0 -1 0 82)">
		<stop  offset="0" style="stop-color:#065FD4"/>
		<stop  offset="0.1466" style="stop-color:#065ED0"/>
		<stop  offset="0.3016" style="stop-color:#0559C3"/>
		<stop  offset="0.4604" style="stop-color:#0552AE"/>
		<stop  offset="0.6209" style="stop-color:#044891"/>
		<stop  offset="0.7549" style="stop-color:#033D72"/>
	</linearGradient>
	<path class="st1" d="M51,16.3c-3.4,3-5.5,7.4-5.5,12.3l0,0V35v4.6v11l0,0c0-2.5,0.6-4.9,1.6-7.1c0.7-1.4,1.5-2.7,2.6-3.9l0,0l0,0
		c0.4-0.5,0.8-0.9,1.3-1.3l0,0c1.2-1,2.5-1.9,3.9-2.6c0.5-0.3,1.1-0.5,1.6-0.7v-6.4l0,0l0,0V13C54.4,13.7,52.6,14.8,51,16.3z"/>
	
		<linearGradient id="SVGID_3_" gradientUnits="userSpaceOnUse" x1="28.9614" y1="32.2423" x2="45.1511" y2="20.8884" gradientTransform="matrix(1 0 0 -1 0 82)">
		<stop  offset="0" style="stop-color:#065FD4"/>
		<stop  offset="1" style="stop-color:#033D72"/>
	</linearGradient>
	<path class="st2" d="M45.5,50.4L45.5,50.4L45.5,50.4L45.5,50.4L45.5,50.4c0,3.1-2.4,5.5-5.3,5.6c-0.1,0-0.1,0-0.2,0
		c-0.1,0-0.1,0-0.2,0c-3-0.1-5.3-2.5-5.3-5.5l0,0c0-3-2.5-5.5-5.5-5.5c-2.4,0-4.5,1.6-5.2,3.8c-0.2,0.5-0.3,1.1-0.3,1.7
		c0,0.2,0,0.3,0,0.5c0,0.1,0,0.2,0,0.3c0,1.1,0.2,2.2,0.5,3.2c1.4,4.5,5.6,7.8,10.5,7.8c6.1,0,11-4.9,11-11
		C45.5,51,45.5,50.7,45.5,50.4z"/>
	
		<linearGradient id="SVGID_4_" gradientUnits="userSpaceOnUse" x1="51.5938" y1="49.2392" x2="35.4042" y2="18.1213" gradientTransform="matrix(1 0 0 -1 0 82)">
		<stop  offset="0" style="stop-color:#2799FF"/>
		<stop  offset="1" style="stop-color:#065FD4"/>
	</linearGradient>
	<path class="st3" d="M56.5,49.9v-5.8v-4.6l0,0l0,0V35c-0.6,0.2-1.1,0.4-1.6,0.7c-1.4,0.7-2.7,1.6-3.9,2.6l0,0
		c-0.5,0.4-0.9,0.8-1.3,1.3l0,0l0,0c-1,1.2-1.9,2.5-2.6,3.9c-1,2.1-1.6,4.5-1.6,7c0,0.3,0,0.6,0,0.9c0,6.1-4.9,11-11,11
		c-5,0-9.2-3.3-10.5-7.8c0.3,1.1,0.6,2.1,1.1,3.1c0.7,1.4,1.5,2.7,2.6,3.9l0,0c0.4,0.5,0.8,0.9,1.3,1.3c1.2,1,2.5,1.9,3.9,2.6
		c2.2,1,4.6,1.6,7.1,1.6c1.9,0,3.8-0.3,5.5-0.9c0.6-0.2,1.1-0.4,1.6-0.7c1.4-0.7,2.7-1.5,3.9-2.6l0,0c0.5-0.4,0.9-0.8,1.3-1.3l0,0
		c1-1.2,1.9-2.5,2.6-3.9c0.9-2,1.5-4.2,1.6-6.5c0-0.2,0-0.4,0-0.6S56.5,50,56.5,49.9z"/>
</g>
</svg>
